<?xml version="1.0"?>
<svg version="1.1" xmlns="http://www.w3.org/2000/svg" width="200" height="70" style=""><path fill="#" d="M15,30.32421875q0-0.1640625,0.228515625-0.251953125t0.298828125-0.087890625l0.43359375-0.0703125q0.43359375-0.0703125,0.87890625-0.123046875t0.8671875-0.099609375q1.48828125-0.1875,2.9765625-0.369140625t3-0.181640625q0.1171875,0,0.322265625,0.01171875t0.41015625,0.064453125t0.3515625,0.146484375t0.146484375,0.2578125q0,0.1171875-0.111328125,0.205078125t-0.263671875,0.134765625t-0.310546875,0.05859375t-0.251953125,0.01171875l-0.205078125,0t-0.205078125-0.046875q-0.62109375,0-1.224609375,0.05859375t-1.224609375,0.10546875q0.1640625,0.1875,0.17578125,0.52734375t0.0234375,0.5859375q0,4.1484375,0.05859375,8.25t0.10546875,8.28515625l0,0.0234375q-0.38671875,0.33984375-0.662109375,0.43359375t-0.556640625,0.09375q-0.26953125,0-0.544921875-0.099609375t-0.662109375-0.427734375l0-0.0234375l0.09375-9.19921875q0-0.9140625-0.0234375-2.015625t-0.0234375-2.232421875t0.03515625-2.185546875t0.1875-1.83984375q-0.69140625,0.0703125-1.46484375,0.2109375q-0.66796875,0.1171875-1.27734375,0.1171875l-0.2109375,0q-0.046875,0-0.275390625,0.01171875t-0.46875-0.01171875t-0.43359375-0.09375t-0.193359375-0.234375z M26.5859765625,43.90625l0-1.1015625q0-0.59765625,0.029296875-1.693359375t0.076171875-2.40234375t0.12890625-2.724609375t0.1875-2.677734375t0.251953125-2.255859375t0.333984375-1.4765625q0.1171875-0.26953125,0.38671875-0.33984375t0.52734375-0.0703125q0.41015625,0,0.720703125,0.181640625t0.310546875,0.662109375l-0.2109375,0.234375q-0.41015625,2.70703125-0.52734375,5.4375t-0.1640625,5.4609375q0.29296875-0.45703125,0.662109375-0.896484375t0.8203125-0.779296875t0.97265625-0.544921875t1.142578125-0.205078125q0.796875,0,1.318359375,0.48046875t0.861328125,1.248046875t0.50390625,1.716796875t0.251953125,1.8984375t0.123046875,1.798828125t0.10546875,1.412109375q-0.22265625,0.3046875-0.65625,0.3046875l-0.03515625,0q-0.1875,0-0.41015625-0.046875t-0.29296875-0.234375l0.0234375,0.0234375q-0.1640625-0.36328125-0.22265625-1.048828125t-0.09375-1.51171875t-0.123046875-1.693359375t-0.263671875-1.5703125t-0.515625-1.16015625t-0.9140625-0.48046875l-0.0703125,0q-0.69140625,0-1.16015625,0.421875q-0.4921875,0.4453125-0.796875,1.171875t-0.46875,1.6171875t-0.251953125,1.716796875t-0.134765625,1.5t-0.1171875,0.990234375q-0.0703125,0.26953125-0.416015625,0.357421875t-0.591796875,0.087890625q-0.57421875,0-0.9375-0.328125q-0.26953125-0.64453125-0.31640625-1.60546875t-0.046875-1.875z M37.796953125,43.109375q0-0.8203125,0.181640625-1.93359375t0.615234375-2.109375t1.142578125-1.693359375t1.787109375-0.697265625q1.0078125,0,1.51171875,0.580078125t0.50390625,1.564453125q0,0.64453125-0.240234375,1.412109375t-0.685546875,1.453125t-1.0546875,1.142578125t-1.359375,0.45703125l-0.3046875-0.0234375q0,0.31640625,0.09375,0.849609375t0.275390625,1.060546875t0.46875,0.92578125t0.697265625,0.3984375q0.59765625,0,1.1484375-0.48046875t1.04296875-1.06640625t0.9140625-1.06640625t0.7734375-0.48046875q0.1875,0,0.38671875,0.05859375t0.22265625,0.328125q0,0.1640625-0.087890625,0.26953125t-0.158203125,0.234375q-0.36328125,0.62109375-0.791015625,1.18359375t-0.966796875,1.01953125t-1.177734375,0.720703125t-1.412109375,0.263671875q-1.0078125,0-1.67578125-0.357421875t-1.078125-0.9609375t-0.591796875-1.39453125t-0.181640625-1.658203125z M39.894609375,42.21875l0.328125,0.29296875q0.234375,0.2109375,0.46875,0.09375t0.421875-0.427734375t0.345703125-0.767578125t0.28125-0.9375t0.181640625-0.9375t0.05859375-0.76171875l0-0.3984375t-0.03515625-0.421875t-0.123046875-0.333984375t-0.275390625-0.169921875q-0.05859375-0.01171875-0.10546875-0.01171875q-0.3984375,0-0.6796875,0.50390625q-0.3046875,0.5625-0.4921875,1.365234375t-0.26953125,1.646484375t-0.10546875,1.265625z"/><path fill="#" d="M64.5651171875,32l-9.42,0l-1.86,0l0,21.09l1.86,0l0-10.56l9.42,0q2.28,0,3.78-1.5t1.5-3.75q0-2.04-1.5-3.63q-1.59-1.65-3.78-1.65z M64.5651171875,40.67l-9.42,0l0-6.81l9.42,0q1.38,0,2.43,0.99q0.99,1.05,0.99,2.43q0,1.41-0.99,2.4q-1.05,0.99-2.43,0.99z M73.5903171875,53.06l14.67,0l0-1.53l-12.81,0l0-19.53l-1.86,0l0,21.06z M99.5955171875,31.88q-3.36,0-5.64,2.43q-2.25,2.4-2.25,5.85l0,12.84l1.89,0l0-9.42l12.06,0l0,9.42l1.89,0l0-12.84q0-3.45-2.25-5.85q-2.34-2.43-5.7-2.43z M105.6555171875,41.72l-12.06,0l0-1.56q0-2.58,1.74-4.47q1.77-1.92,4.26-1.92t4.32,1.92q1.74,1.89,1.74,4.47l0,1.56z M112.1007171875,53l1.86,0l0-12.72q0-2.52,1.92-4.5q1.92-1.92,4.44-1.92t4.5,1.92q1.92,1.98,1.92,4.5l0,12.72l1.86,0l0-12.72q0-3.42-2.43-5.85t-5.85-2.43q-3.36,0-5.79,2.43t-2.43,5.85l0,12.72z M134.9259171875,47.24q0-1.44,1.02-2.61q1.02-1.23,2.46-1.23l0.39,0l5.61,0l0-1.86l-5.61,0l-0.39,0q-1.53-0.3-2.505-1.32t-0.975-2.43q0-1.77,1.035-2.805t2.835-1.035l10.2,0l0-1.89l-10.2,0q-2.31,0-4.02,1.71q-1.71,1.65-1.71,4.02q0,1.5,0.57,2.73t1.68,1.77q-1.11,0.81-1.68,2.13t-0.57,2.82q0,2.34,1.71,3.99q1.74,1.74,4.02,1.74l10.2,0l0-1.98l-10.2,0q-1.8,0-2.835-1.02t-1.035-2.73z M168.1611171875,32l-16.26,0l0,1.83l7.38,0l0,19.23l1.86,0l0-19.23l7.02,0l0-1.83z"/></svg>
